<?xml version="1.0" encoding="UTF-8" standalone="no"?>
<!-- Created with Inkscape (http://www.inkscape.org/) -->

<svg
   xmlns:dc="http://purl.org/dc/elements/1.1/"
   xmlns:cc="http://creativecommons.org/ns#"
   xmlns:rdf="http://www.w3.org/1999/02/22-rdf-syntax-ns#"
   xmlns:svg="http://www.w3.org/2000/svg"
   xmlns="http://www.w3.org/2000/svg"
   xmlns:xlink="http://www.w3.org/1999/xlink"
   xmlns:sodipodi="http://sodipodi.sourceforge.net/DTD/sodipodi-0.dtd"
   xmlns:inkscape="http://www.inkscape.org/namespaces/inkscape"
   width="800"
   height="800"
   viewBox="0 0 211.66666 211.66667"
   version="1.1"
   id="svg8"
   inkscape:version="0.92.3 (2405546, 2018-03-11)"
   sodipodi:docname="aaaa.svg">
  <defs
     id="defs2">
    <linearGradient
       inkscape:collect="always"
       id="linearGradient856">
      <stop
         style="stop-color:#5d2300;stop-opacity:1"
         offset="0"
         id="stop852" />
      <stop
         style="stop-color:#030303;stop-opacity:1"
         offset="1"
         id="stop854" />
    </linearGradient>
    <linearGradient
       inkscape:collect="always"
       xlink:href="#linearGradient856"
       id="linearGradient858"
       x1="103.22529"
       y1="195.41888"
       x2="102.77171"
       y2="176.52008"
       gradientUnits="userSpaceOnUse"
       gradientTransform="matrix(0.91364031,0,0,0.91758812,-44.324685,24.329413)" />
    <linearGradient
       inkscape:collect="always"
       xlink:href="#linearGradient856"
       id="linearGradient858-3"
       x1="103.22529"
       y1="195.41888"
       x2="102.77171"
       y2="176.52008"
       gradientUnits="userSpaceOnUse"
       gradientTransform="matrix(0.91364031,0,0,0.91758812,-20.151283,25.456608)" />
  </defs>
  <sodipodi:namedview
     id="base"
     pagecolor="#ffffff"
     bordercolor="#666666"
     borderopacity="1.0"
     inkscape:pageopacity="0.0"
     inkscape:pageshadow="2"
     inkscape:zoom="0.7"
     inkscape:cx="362.99345"
     inkscape:cy="394.49159"
     inkscape:document-units="mm"
     inkscape:current-layer="layer1"
     showgrid="false"
     units="px"
     showguides="false"
     inkscape:window-width="1600"
     inkscape:window-height="835"
     inkscape:window-x="0"
     inkscape:window-y="0"
     inkscape:window-maximized="1" />
  <metadata
     id="metadata5">
    <rdf:RDF>
      <cc:Work
         rdf:about="">
        <dc:format>image/svg+xml</dc:format>
        <dc:type
           rdf:resource="http://purl.org/dc/dcmitype/StillImage" />
        <dc:title></dc:title>
      </cc:Work>
    </rdf:RDF>
  </metadata>
  <g
     inkscape:label="Camada 1"
     inkscape:groupmode="layer"
     id="layer1"
     transform="translate(0,-85.333317)">
    <path
       style="fill:#cccccc;fill-opacity:1;stroke:#000000;stroke-width:0.862315;stroke-linecap:butt;stroke-linejoin:miter;stroke-miterlimit:4;stroke-dasharray:none;stroke-opacity:1"
       d="m 87.014555,196.10012 -47.278712,-27.77764 -8.611134,36.45471 55.946594,21.6803 z"
       id="path829"
       inkscape:connector-curvature="0" />
    <path
       style="fill:#d35f5f;stroke:#000000;stroke-width:0.862315;stroke-linecap:butt;stroke-linejoin:miter;stroke-miterlimit:4;stroke-dasharray:none;stroke-opacity:1"
       d="m 87.015817,183.40633 c -3.037002,0.41401 -9.541309,95.81839 3.039057,94.78782 7.57386,-0.62045 65.812376,-8.78533 99.765916,-26.16993 0,0 -28.4458,-68.05258 -51.33783,-83.28775 z"
       id="path821"
       inkscape:connector-curvature="0"
       sodipodi:nodetypes="csccc" />
    <path
       style="fill:#cccccc;fill-opacity:1;stroke:#000000;stroke-width:0.862315;stroke-linecap:butt;stroke-linejoin:miter;stroke-miterlimit:4;stroke-dasharray:none;stroke-opacity:1"
       d="m 108.59359,190.85604 c 0,0 36.15541,80.81519 25.81412,84.21613 -10.3413,3.40095 -57.025941,12.62761 -55.710099,4.54582 1.315837,-8.08178 -11.288504,-88.80976 -1.485146,-92.5107 9.803351,-3.70096 31.381125,3.74875 31.381125,3.74875 z"
       id="path831"
       inkscape:connector-curvature="0" />
    <path
       style="fill:#cccccc;fill-opacity:1;stroke:#000000;stroke-width:0.862315;stroke-linecap:butt;stroke-linejoin:miter;stroke-miterlimit:4;stroke-dasharray:none;stroke-opacity:1"
       d="m 129.81379,187.52759 c 0,0 18.7011,83.07024 26.35238,81.34269 7.65128,-1.72753 45.72859,-12.58083 45.5495,-14.79647 -0.17916,-2.21563 -44.82172,-90.58508 -54.02722,-87.96121 -9.20549,2.62387 -17.87466,21.41499 -17.87466,21.41499 z"
       id="path833"
       inkscape:connector-curvature="0" />
    <path
       style="fill:#cccccc;fill-opacity:1;stroke:#000000;stroke-width:0.96902275;stroke-linecap:butt;stroke-linejoin:miter;stroke-miterlimit:4;stroke-dasharray:none;stroke-opacity:1"
       d="m 136.74221,179.72057 c 0,0 52.94871,81.19876 52.09563,83.24513 -0.85307,2.04635 28.08584,-9.80861 26.04375,-13.19359 -2.04209,-3.38497 -60.49722,-88.78448 -65.09854,-86.03039 -4.60132,2.75408 -13.04084,15.97885 -13.04084,15.97885 z"
       id="path848"
       inkscape:connector-curvature="0" />
    <ellipse
       style="fill:#ffcd94;fill-opacity:1;fill-rule:nonzero;stroke:#000000;stroke-width:0.862315;stroke-miterlimit:4;stroke-dasharray:none;stroke-opacity:1"
       id="path819"
       cx="62.559822"
       cy="184.97462"
       rx="43.074673"
       ry="42.725304"
       transform="rotate(-15.90932)" />
    <path
       style="fill:#000000;fill-opacity:1;stroke:#000000;stroke-width:0.21557875px;stroke-linecap:butt;stroke-linejoin:miter;stroke-opacity:1"
       d="m 64.124406,161.82427 c 0.01986,0.59878 -0.0079,1.20101 0.05959,1.79635 0.03273,0.28878 0.159343,0.55903 0.239015,0.83854 0.239013,0.83855 0.478025,1.67709 0.71704,2.51565 0.597536,2.09636 1.19507,4.19273 1.792607,6.28911 0.150317,0.52736 0.274425,1.94393 1.015965,1.97709 0.268144,0.0121 2.15144,-0.61323 2.510592,-0.7156 0.836863,-0.23853 1.673728,-0.47707 2.510592,-0.71561 0.278955,-0.0795 0.557911,-0.15902 0.836865,-0.23852 0.139477,-0.0398 0.298718,-0.0373 0.418431,-0.11931 2.742329,-1.87623 -0.625251,0.30892 1.016282,-1.19634 0.338164,-0.3101 0.822387,-0.44189 1.135786,-0.77709 0.280315,-0.29979 0.332106,-0.76424 0.597853,-1.07707 0.09396,-0.11059 0.31152,-0.0208 0.418432,-0.1193 0.385563,-0.35358 0.658949,-0.81418 1.016279,-1.19636 0.443215,-0.47402 1.042595,-0.79837 1.434713,-1.31562 0.409301,-0.5399 1.153557,-2.07823 1.494624,-2.6927 0.09965,-0.17951 0.166055,-0.38212 0.298928,-0.53853 0.420183,-0.49463 1.042593,-0.79838 1.434714,-1.31562 0.856422,-1.12971 0.215519,-0.98252 1.315206,-1.73489 0.119711,-0.082 0.278954,-0.0795 0.418431,-0.1193 0.378597,-0.25903 0.797628,-0.46697 1.135788,-0.77707 0.151238,-0.13867 0.147694,-0.39986 0.298925,-0.53855 0.338173,-0.31008 0.738453,-0.54792 1.135781,-0.77707 0.12567,-0.0725 0.324494,-0.008 0.418433,-0.1193 0.265752,-0.31282 0.332112,-0.76425 0.597863,-1.07707 0.09398,-0.11059 0.292764,-0.0468 0.418424,-0.11931 0.39735,-0.22916 0.72799,-0.56713 1.1358,-0.77708 0.38686,-0.19917 0.87834,-0.1404 1.25528,-0.3578 3.92582,-2.26408 -0.25903,0.23752 1.43471,-1.31562 0.15962,-0.14635 1.50057,-0.35856 1.67373,-0.47706 0.16931,-0.11585 0.1477,-0.39986 0.29893,-0.53854 0.10693,-0.0981 0.27896,-0.0795 0.41843,-0.1193 0.27896,-0.0795 0.55791,-0.15902 0.83687,-0.23854 0.69738,-0.19878 1.39477,-0.39756 2.09215,-0.59632 0.13948,-0.0398 0.31152,-0.0208 0.41843,-0.11931 0.38558,-0.35356 0.6027,-0.87611 1.0163,-1.19634 0.344109,-0.26645 0.836845,-0.23853 1.255285,-0.3578 0.83686,-0.23853 1.67373,-0.47707 2.5106,-0.7156 0.27895,-0.0795 0.55791,-0.15902 0.83686,-0.23854 0.27894,-0.0795 0.5974,-0.0747 0.83686,-0.23853 0.36941,-0.25274 0.10165,-0.77418 0.71736,-0.6578 1.07163,0.20251 0.36984,1.23736 0.0596,1.79634 -0.59784,1.07708 -1.19569,2.15417 -1.79355,3.23124 -0.13463,0.24254 -0.88766,1.40608 -0.89678,1.61562 -0.0126,0.29032 0.25162,0.54825 0.23901,0.83856 -0.009,0.20529 -0.35526,0.34089 -0.29892,0.53855 0.0399,0.13975 0.27896,-0.0795 0.41843,-0.11931 0.41844,-0.1193 0.83687,-0.23853 1.2553,-0.35781 0.12476,-0.0356 1.6578,-0.45609 1.67373,-0.47706 0.372,-0.49071 0.52479,-1.12493 0.89677,-1.61564 0.0877,-0.11566 0.31151,-0.0208 0.41844,-0.1193 0.15123,-0.13867 0.19927,-0.35902 0.29891,-0.53854 0.0996,-0.17951 0.1993,-0.35902 0.29894,-0.53854 0.009,-0.0161 1.05082,-2.02131 1.19569,-2.15416 0.10693,-0.0981 0.31153,-0.0208 0.41843,-0.11931 0.15123,-0.13866 0.16605,-0.38212 0.29893,-0.53853 0.21008,-0.24731 0.50727,-0.4105 0.71735,-0.65782 0.29231,-0.34411 0.66329,-1.19497 0.89677,-1.61561 0.0996,-0.17951 0.1477,-0.39988 0.29894,-0.53854 0.21385,-0.19613 0.62298,-0.0426 0.83685,-0.23854 0.15124,-0.13866 0.14769,-0.39987 0.29893,-0.53853 0.27327,-0.2506 0.77587,-0.0838 0.95637,0.18073 0.16377,0.24003 0.15934,0.55903 0.239,0.83855 0.23902,0.83854 0.47804,1.6771 0.71705,2.51563 0.0771,0.27031 0.51236,1.56992 0.47802,1.6771 -0.12507,0.39129 -0.39855,0.71806 -0.59784,1.07708 -0.0996,0.17951 -0.26109,0.33663 -0.29893,0.53855 -0.19805,1.05731 0.0265,1.68032 0.29862,2.6349 0.0797,0.27951 0.15934,0.55902 0.23902,0.83855 0.0399,0.13974 0.0218,0.31203 0.11955,0.41927 0.13857,0.15165 0.33631,0.2619 0.53793,0.30001 0.14257,0.027 0.27896,-0.0795 0.41843,-0.11931 0.27897,-0.0795 0.55791,-0.15902 0.83687,-0.23852 0.69738,-0.19879 1.39477,-0.39757 2.09216,-0.59635 0.6974,-0.19878 1.39479,-0.39756 2.09216,-0.59632 0.27896,-0.0795 0.58556,-0.0936 0.83687,-0.23854 0.28097,-0.16203 0.44964,-0.47466 0.71736,-0.65781 0.11973,-0.0819 0.29869,-0.0374 0.41842,-0.1193 0.85,-0.58156 0.91511,-1.10357 1.73364,-1.85416 0.10693,-0.0981 0.29277,-0.0468 0.41843,-0.1193 0.39735,-0.22916 0.73844,-0.54793 1.1358,-0.77709 0.12566,-0.0725 0.32447,-0.008 0.41842,-0.1193 0.26574,-0.31283 0.34986,-0.74993 0.59786,-1.07707 0.39211,-0.51725 1.01452,-0.821 1.4347,-1.31561 0.13288,-0.15642 0.16606,-0.38213 0.29893,-0.53854 0.5839,-0.68736 0.51299,-0.59957 1.13579,-0.77708 0.13947,-0.0398 0.29278,-0.0468 0.41844,-0.1193 3.9258,-2.26407 -0.25904,0.23753 1.4347,-1.31562 0.10694,-0.0981 0.27896,-0.0795 0.41843,-0.11931 0.13947,-0.0398 0.27896,-0.0795 0.41843,-0.1193 0.55791,-0.15902 1.11583,-0.31804 1.67374,-0.47706 0.97634,-0.2783 1.95268,-0.55658 2.92901,-0.83488 0.27896,-0.0795 0.54703,-0.25147 0.83687,-0.23853 0.3349,0.015 1.19341,0.15156 1.49431,0.48075 0.098,0.10722 0.01,0.325 0.11955,0.41928 0.31258,0.26652 0.71724,0.40001 1.07587,0.6 0.71726,0.40002 1.43451,0.80002 2.15176,1.20003 0.35862,0.2 0.74904,0.35125 1.07589,0.60002 1.07049,-0.14345 0.42747,0.84055 0.77694,1.13856 0.76629,0.65338 1.92343,0.84663 2.68971,1.50002 0.10946,0.0933 0.42213,1.59519 0.47802,1.67708 0.11586,0.16973 0.42211,0.13029 0.53793,0.30001 0.44472,0.6517 -0.12018,0.96901 0.77696,1.13856 0.14551,0.0275 1.06685,-0.3041 1.25529,-0.3578 0.35039,-0.0999 1.79668,-0.42592 2.09216,-0.59634 1.11586,-0.64352 0.49818,-0.57208 0.89678,-1.61563 0.14656,-0.38369 0.47277,-0.68579 0.59785,-1.07707 0.0442,-0.13833 -0.0797,-0.27952 -0.11955,-0.41928 -0.0797,-0.27951 -0.29251,-0.55296 -0.239,-0.83853 0.0757,-0.40386 0.47276,-0.68581 0.59785,-1.07709 0.0884,-0.27667 -0.25163,-0.54824 -0.23902,-0.83855 0.0141,-0.32457 0.16529,-0.63323 0.17942,-0.95781 0.006,-0.14517 -0.0797,-0.27951 -0.11955,-0.41926 -0.0797,-0.27954 -0.15934,-0.55904 -0.23902,-0.83856 -0.27885,-0.9783 -0.5577,-1.95661 -0.83654,-2.9349 -0.45611,-1.60019 -0.23226,-0.0666 0.35883,-1.91564 0.013,-0.0411 -0.44838,-1.57307 -0.47802,-1.6771 -0.35853,-1.25782 -0.71704,-2.51563 -1.07556,-3.77346 -0.59753,-2.09635 -1.19508,-4.19273 -1.7926,-6.28909 -0.15936,-0.55904 -0.3187,-1.11806 -0.47804,-1.6771 -0.0797,-0.27951 -0.15934,-0.55902 -0.23901,-0.83855 -0.0399,-0.13974 -0.047,-0.29334 -0.11955,-0.41927 -0.22918,-0.39826 -0.56692,-0.72981 -0.77695,-1.13855 -0.28222,-0.54919 -0.27381,-1.62197 -0.59753,-2.09635 -0.29529,-0.43273 -0.84204,-0.63268 -1.19539,-1.0193 -0.098,-0.10722 -0.047,-0.29334 -0.11955,-0.41927 -0.22918,-0.39827 -0.51797,-0.75902 -0.77696,-1.13855 -0.25898,-0.37951 -0.49617,-0.7749 -0.77694,-1.13855 -0.19853,-0.25715 -0.49539,-0.43767 -0.65745,-0.71929 -0.1449,-0.2519 -0.10619,-0.58005 -0.23901,-0.83854 -0.20998,-0.40873 -0.54777,-0.74028 -0.77696,-1.13854 -0.25765,-0.44776 -0.14052,-1.30782 -0.47803,-1.67711 -0.27721,-0.30327 -0.76329,-0.33347 -1.07588,-0.60002 -0.11045,-0.0942 -0.0797,-0.2795 -0.11944,-0.41927 -0.0399,-0.13975 -0.0797,-0.27952 -0.11955,-0.41926 -0.0797,-0.27952 -0.0752,-0.59852 -0.23902,-0.83855 -0.11586,-0.16972 -0.42212,-0.13028 -0.53793,-0.30001 -0.2457,-0.36003 -0.23902,-0.83854 -0.35853,-1.25782 -0.0399,-0.13975 -0.14629,-0.27648 -0.11955,-0.41926 0.0378,-0.20192 0.19927,-0.35904 0.29893,-0.53854 0.0996,-0.17952 0.14768,-0.39987 0.29891,-0.53855 0.21388,-0.19612 0.59741,-0.0748 0.83687,-0.23853 0.57721,-0.39491 1.49407,-1.25068 0.77727,-2.0349 -0.098,-0.10721 -0.29164,0.18998 -0.41844,0.11931 -0.12678,-0.0707 0.0231,-0.39235 -0.11955,-0.41928 -0.28513,-0.0539 -0.5579,0.15902 -0.83685,0.23853 -1.11582,0.31804 -2.23164,0.6361 -3.34746,0.95414 -0.27894,0.0795 -0.54703,0.25149 -0.83687,0.23854 -0.20493,-0.009 -0.34257,-0.23715 -0.53793,-0.30001 -0.30891,-0.0994 -0.64745,-0.0814 -0.95638,-0.18073 -0.19537,-0.0629 -0.33299,-0.29085 -0.53793,-0.30002 -0.28983,-0.0129 -0.54693,0.2292 -0.83687,0.23853 -0.64834,0.0209 -1.26616,-0.41323 -1.91274,-0.36148 -0.72291,0.0579 -1.39477,0.39756 -2.09217,0.59634 -0.13947,0.0398 -0.2735,0.12578 -0.41842,0.1193 -0.32405,-0.0145 -0.63233,-0.16624 -0.95637,-0.18075 -0.22203,-0.01 -2.74015,0.78104 -2.92903,0.83487 -1.53424,0.43732 -3.0685,0.87463 -4.60276,1.31195 -0.2148,0.0613 -1.55047,0.51669 -1.67371,0.47706 -0.39074,-0.1257 -0.68513,-0.47429 -1.07589,-0.60002 -0.13814,-0.0444 -0.27894,0.0795 -0.41843,0.1193 -0.13947,0.0398 -0.27895,0.0795 -0.41843,0.11931 -0.69738,0.19878 -1.39478,0.39756 -2.09215,0.59633 -0.41843,0.11931 -0.82055,0.37725 -1.25529,0.3578 -0.20495,-0.009 -0.33633,-0.26189 -0.53795,-0.29999 -0.14258,-0.027 -0.27895,0.0795 -0.41842,0.11931 -0.13948,0.0398 -0.27896,0.0795 -0.41843,0.1193 -0.3504,0.0999 -1.75125,0.58536 -2.09216,0.59633 -2.16486,0.0698 -0.036,-0.20517 -1.49431,-0.48075 -0.14553,-0.0274 -1.06686,0.30409 -1.25531,0.35781 -0.97633,0.27828 -1.95267,0.55658 -2.92903,0.83486 -0.13947,0.0398 -0.27895,0.0795 -0.41842,0.1193 -0.13948,0.0398 -0.27586,0.14622 -0.41842,0.11931 -0.20163,-0.0381 -0.333,-0.29085 -0.53796,-0.3 -0.43475,-0.0194 -0.83686,0.23853 -1.25529,0.3578 -0.83685,0.23852 -1.67372,0.47706 -2.51058,0.71559 -1.952685,0.55658 -3.905365,1.11316 -5.858035,1.66975 -2.09217,0.59633 -4.18433,1.19266 -6.276491,1.789 -0.697389,0.19878 -1.394768,0.39755 -2.092166,0.59633 -0.139471,0.0398 -0.298688,0.0374 -0.418413,0.1193 -0.267727,0.18317 -0.449656,0.47464 -0.717372,0.65781 -0.340732,0.23313 -0.914556,0.12472 -1.255289,0.35779 -0.169318,0.11586 -0.121233,0.43606 -0.298924,0.53856 -0.37696,0.21738 -0.878349,0.1404 -1.255304,0.3578 -0.177708,0.10242 -0.166043,0.38213 -0.298917,0.53854 -0.210096,0.24731 -0.449658,0.47464 -0.717365,0.6578 -0.239449,0.16381 -0.597414,0.0747 -0.83686,0.23852 -0.267705,0.18317 -0.449652,0.47466 -0.71736,0.65782 -0.402299,0.27525 -1.271425,0.20183 -1.673727,0.47707 -0.169309,0.11585 -0.19929,0.35902 -0.298928,0.53853 -0.09964,0.17953 -0.199277,0.35903 -0.298928,0.53855 -0.498206,0.89756 -0.996412,1.79514 -1.494619,2.6927 -0.896779,1.61562 -1.793549,3.23125 -2.690325,4.84687 -0.298926,0.53854 -0.597854,1.07708 -0.896776,1.61562 -0.09964,0.17952 -0.225644,0.3467 -0.298928,0.53854 -0.186833,0.48912 -0.29151,1.00723 -0.478345,1.49635 -0.29702,0.77762 -0.399798,0.47065 -1.01628,1.19634 -0.132871,0.15643 -0.19928,0.35904 -0.298926,0.53855 -0.298923,0.53855 -0.597849,1.07708 -0.896772,1.61563 -0.09964,0.1795 -0.166053,0.38212 -0.298926,0.53854 -0.210091,0.24731 -0.521299,0.39917 -0.717358,0.65781 -0.248001,0.32711 -0.398566,0.71805 -0.597851,1.07707 -0.09964,0.17951 -0.236386,0.34289 -0.298925,0.53854 -0.09889,0.30933 -0.08053,0.64848 -0.179418,0.95782 -0.125079,0.39128 -0.579987,0.66651 -0.597849,1.07708 -0.01264,0.29031 0.251643,0.54821 0.239015,0.83856 -0.0089,0.20527 -0.199286,0.35901 -0.298925,0.53853 -0.09965,0.1795 -0.199283,0.35902 -0.29893,0.53853 -0.398565,0.71805 -0.79713,1.43611 -1.195698,2.15417 -0.09964,0.17951 -0.199282,0.35903 -0.298927,0.53854 -0.09964,0.17951 -0.261098,0.33661 -0.298922,0.53855 -0.02675,0.14277 0.125824,0.27409 0.119508,0.41925 -0.01412,0.32459 -0.165293,0.63324 -0.179417,0.95782 -0.0063,0.14516 0.146256,0.27651 0.119508,0.41927 -0.03782,0.20193 -0.199278,0.35904 -0.298921,0.53854 -0.09964,0.17952 -0.261101,0.33662 -0.298927,0.53854 -0.05447,0.29081 0.771517,2.22484 0.717043,2.51565 -0.03783,0.20192 -0.199283,0.35902 -0.298922,0.53855 -0.09964,0.1795 -0.147696,0.39985 -0.298927,0.53853 -0.106932,0.0981 -0.347977,-0.008 -0.418429,0.11931 -0.07046,0.12693 0.146253,0.27649 0.119508,0.41926 -0.107647,0.5747 -0.789122,1.04094 -0.896776,1.61562 -0.0273,0.14576 0.304698,1.06899 0.358525,1.25784 0.318683,1.11805 0.637365,2.2361 0.956054,3.35419 z"
       id="path825"
       inkscape:connector-curvature="0" />
    <path
       style="fill:#ffcd94;fill-opacity:1;fill-rule:nonzero;stroke:#000000;stroke-width:0.96902275;stroke-miterlimit:4;stroke-dasharray:none;stroke-opacity:1"
       d="m 17.393601,156.56165 a 11.070081,8.594688 45.263466 0 0 -2.974098,1.76038 11.070081,8.594688 45.263466 0 0 0.148589,11.94943 23.757611,22.619394 74.09068 0 0 -1.591547,2.31693 12.447981,6.7544518 17.236952 0 0 -0.156054,-0.0532 12.447981,6.7544518 17.236952 0 0 -13.8603387,2.79344 12.447981,6.7544518 17.236952 0 0 9.92924,10.13098 12.447981,6.7544518 17.236952 0 0 0.725721,0.20879 23.757611,22.619394 74.09068 0 0 0.05976,1.42222 6.2428761,10.705362 74.09068 0 0 -0.09663,0.0244 6.2428761,10.705362 74.09068 0 0 -8.58432699,8.93848 6.2428761,10.705362 74.09068 0 0 12.00694269,3.06929 6.2428761,10.705362 74.09068 0 0 0.884992,-0.28137 23.757611,22.619394 74.09068 0 0 5.406326,5.7307 8.3238347,8.4606901 74.09068 0 0 -0.54409,5.89533 8.3238347,8.4606901 74.09068 0 0 10.418273,5.68566 8.3238347,8.4606901 74.09068 0 0 6.109135,-7.12949 23.757611,22.619394 74.09068 0 0 3.519338,-0.6639 23.757611,22.619394 74.09068 0 0 15.24039,-29.04794 23.757611,22.619394 74.09068 0 0 -10.82607,-14.24191 7.6675094,5.4605149 76.549529 0 0 -0.0013,-1.17756 7.6675094,5.4605149 76.549529 0 0 -6.072332,-8.05697 7.6675094,5.4605149 76.549529 0 0 -5.097665,6.02419 23.757611,22.619394 74.09068 0 0 -2.15177,0.069 11.070081,8.594688 45.263466 0 0 -1.582199,-1.89254 11.070081,8.594688 45.263466 0 0 -10.910325,-3.47455 z"
       id="path835"
       inkscape:connector-curvature="0" />
    <ellipse
       style="fill:url(#linearGradient858);fill-opacity:1;fill-rule:nonzero;stroke:#000000;stroke-width:0.96902275;stroke-miterlimit:4;stroke-dasharray:none;stroke-opacity:1"
       id="path850"
       cx="50.296898"
       cy="192.7184"
       rx="8.288023"
       ry="9.1041946"
       transform="rotate(-15.90932)" />
    <ellipse
       style="fill:url(#linearGradient858-3);fill-opacity:1;fill-rule:nonzero;stroke:#000000;stroke-width:0.96902275;stroke-miterlimit:4;stroke-dasharray:none;stroke-opacity:1"
       id="path850-5"
       cx="74.470306"
       cy="193.8456"
       rx="8.288023"
       ry="9.1041946"
       transform="rotate(-15.90932)" />
    <ellipse
       style="fill:#ffffff;fill-opacity:1;fill-rule:nonzero;stroke:#000000;stroke-width:0.96902275;stroke-miterlimit:4;stroke-dasharray:none;stroke-opacity:1"
       id="path884"
       cx="50.383255"
       cy="-192.80511"
       rx="4.0576777"
       ry="5.0289831"
       transform="matrix(0.96169673,-0.27411566,-0.27411566,-0.96169673,0,0)" />
    <ellipse
       style="fill:#ffffff;fill-opacity:1;fill-rule:nonzero;stroke:#000000;stroke-width:0.96902275;stroke-miterlimit:4;stroke-dasharray:none;stroke-opacity:1"
       id="path884-3"
       cx="74.988312"
       cy="-193.8456"
       rx="4.0576777"
       ry="5.0289836"
       transform="matrix(0.96169673,-0.27411566,-0.27411566,-0.96169673,0,0)" />
    <path
       style="fill:none;stroke:#000000;stroke-width:0.9156121;stroke-linecap:butt;stroke-linejoin:miter;stroke-miterlimit:4;stroke-dasharray:none;stroke-opacity:1"
       d="m 108.59359,190.85604 c 0,0 12.22364,6.77671 21.05649,-7.67143"
       id="path919"
       inkscape:connector-curvature="0" />
    <ellipse
       style="fill:#c6c6c6;fill-opacity:0.6747573;fill-rule:nonzero;stroke:#000000;stroke-width:0.9156121;stroke-miterlimit:4;stroke-dasharray:none;stroke-opacity:1"
       id="path921"
       cx="47.275238"
       cy="192.80511"
       rx="13.899704"
       ry="11.271859"
       transform="rotate(-15.90932)" />
    <ellipse
       style="fill:#c6c6c6;fill-opacity:0.6747573;fill-rule:nonzero;stroke:#000000;stroke-width:0.9156121;stroke-miterlimit:4;stroke-dasharray:none;stroke-opacity:1"
       id="path923"
       cx="75.506302"
       cy="193.15195"
       rx="14.158706"
       ry="10.925034"
       transform="rotate(-15.90932)" />
  </g>
</svg>
